<svg width="23" height="28" viewBox="0 0 23 28" fill="none" xmlns="http://www.w3.org/2000/svg">
<path d="M11.8191 20.4927L9.58509 27L7.0319 24.0421L2.88297 25.2253L5.7553 18.4221" stroke="#C3CFBA" stroke-width="1.11192" stroke-miterlimit="10" stroke-linecap="round" stroke-linejoin="round"/>
<path d="M16.6383 18.7474L20.117 24.0421L16.2872 23.7463L14.0532 27L11.1808 22.8589" stroke="#C3CFBA" stroke-width="1.11192" stroke-miterlimit="10" stroke-linecap="round" stroke-linejoin="round"/>
<path d="M18.2021 3.3959C18.7128 3.5438 19.2553 4.04664 19.4149 4.51991L20.0213 6.47213C20.1808 6.94539 20.5 7.71445 20.7553 8.15813L21.8085 9.93288C22.0638 10.3766 22.0638 11.0865 21.8085 11.5301L20.7553 13.3049C20.5 13.7486 20.1489 14.4881 20.0213 14.9909L19.4149 16.9431C19.2553 17.4164 18.7128 17.9192 18.2021 18.0671L16.0957 18.6291C15.5851 18.777 14.7553 19.0728 14.2766 19.3094L12.3617 20.2856C11.883 20.5222 11.117 20.5222 10.6383 20.2856L8.7234 19.3094C8.24468 19.0728 7.44681 18.7474 6.90425 18.6291L4.79787 18.0671C4.28723 17.9192 3.74468 17.4164 3.58511 16.9431L2.97872 14.9909C2.81915 14.5176 2.5 13.7486 2.24468 13.3049L1.19149 11.5301C0.93617 11.0865 0.93617 10.3766 1.19149 9.93288L2.24468 8.15813C2.5 7.71445 2.85106 6.97497 2.97872 6.47213L3.58511 4.51991C3.74468 4.04664 4.28723 3.5438 4.79787 3.3959L6.90425 2.8339C7.41489 2.68601 8.24468 2.39022 8.7234 2.15358L10.6383 1.17747C11.117 0.940842 11.883 0.940842 12.3617 1.17747L14.2766 2.15358C14.7553 2.39022 15.5532 2.71559 16.0957 2.8339L18.2021 3.3959Z" stroke="#C3CFBA" stroke-width="1.11192" stroke-miterlimit="10" stroke-linecap="round" stroke-linejoin="round"/>
<path d="M11.5 13.0979L8.34042 14.5768L8.91489 11.3823L6.39362 9.10472L9.90425 8.60187L11.5 5.70312L13.0957 8.60187L16.6064 9.10472L14.0851 11.3823L14.6596 14.5768L11.5 13.0979Z" stroke="#C3CFBA" stroke-width="1.11192" stroke-miterlimit="10" stroke-linecap="round" stroke-linejoin="round"/>
</svg>
