<svg width="24" height="26" viewBox="0 0 24 26" fill="none" xmlns="http://www.w3.org/2000/svg">
<path d="M22.5933 26H1.40667C0.633148 26 0 25.3852 0 24.6316C0 18.6538 4.59699 15.7368 12 15.7368C19.403 15.7368 24 18.6538 24 24.6316C24 25.3832 23.3706 26 22.5933 26ZM12 17.1053C5.28245 17.1053 1.41176 19.5613 1.41176 24.6316C1.41176 24.63 22.5933 24.6316 22.5933 24.6316C22.5882 19.5613 18.7175 17.1053 12 17.1053ZM12 14.3684C8.33011 14.3684 5.64706 11.0372 5.64706 6.84211C5.64706 2.79266 8.2794 0 12 0C15.7206 0 18.3529 2.79266 18.3529 6.84211C18.3529 11.0372 15.6699 14.3684 12 14.3684ZM12 13C14.7293 13 16.9412 10.3739 16.9412 6.84211C16.9412 3.47303 14.8298 1.36842 12 1.36842C9.17024 1.36842 7.05882 3.47303 7.05882 6.84211C7.05882 10.3739 9.27073 13 12 13Z" fill="#C3CFBA"/>
</svg>
