<svg width="20" height="20" viewBox="0 0 20 20" fill="none" xmlns="http://www.w3.org/2000/svg">
<path d="M0 4.66667V0.666667C0 0.489856 0.0702379 0.320286 0.195262 0.195262C0.320286 0.0702379 0.489856 0 0.666667 0H4.66667C4.84348 0 5.01305 0.0702379 5.13807 0.195262C5.2631 0.320286 5.33333 0.489856 5.33333 0.666667C5.33333 0.843478 5.2631 1.01305 5.13807 1.13807C5.01305 1.2631 4.84348 1.33333 4.66667 1.33333H1.33333V4.66667C1.33333 4.84348 1.2631 5.01305 1.13807 5.13807C1.01305 5.2631 0.843478 5.33333 0.666667 5.33333C0.489856 5.33333 0.320286 5.2631 0.195262 5.13807C0.0702379 5.01305 0 4.84348 0 4.66667V4.66667ZM19.3333 0H15.3333C15.1565 0 14.987 0.0702379 14.8619 0.195262C14.7369 0.320286 14.6667 0.489856 14.6667 0.666667C14.6667 0.843478 14.7369 1.01305 14.8619 1.13807C14.987 1.2631 15.1565 1.33333 15.3333 1.33333H18.6667V4.66667C18.6667 4.84348 18.7369 5.01305 18.8619 5.13807C18.987 5.2631 19.1565 5.33333 19.3333 5.33333C19.5101 5.33333 19.6797 5.2631 19.8047 5.13807C19.9298 5.01305 20 4.84348 20 4.66667V0.666667C20 0.489856 19.9298 0.320286 19.8047 0.195262C19.6797 0.0702379 19.5101 0 19.3333 0ZM4.66667 18.6667H1.33333V15.3333C1.33333 15.1565 1.2631 14.987 1.13807 14.8619C1.01305 14.7369 0.843478 14.6667 0.666667 14.6667C0.489856 14.6667 0.320286 14.7369 0.195262 14.8619C0.0702379 14.987 0 15.1565 0 15.3333V19.3333C0 19.5101 0.0702379 19.6797 0.195262 19.8047C0.320286 19.9298 0.489856 20 0.666667 20H4.66667C4.84348 20 5.01305 19.9298 5.13807 19.8047C5.2631 19.6797 5.33333 19.5101 5.33333 19.3333C5.33333 19.1565 5.2631 18.987 5.13807 18.8619C5.01305 18.7369 4.84348 18.6667 4.66667 18.6667V18.6667ZM19.3333 14.6667C19.1565 14.6667 18.987 14.7369 18.8619 14.8619C18.7369 14.987 18.6667 15.1565 18.6667 15.3333V18.6667H15.3333C15.1565 18.6667 14.987 18.7369 14.8619 18.8619C14.7369 18.987 14.6667 19.1565 14.6667 19.3333C14.6667 19.5101 14.7369 19.6797 14.8619 19.8047C14.987 19.9298 15.1565 20 15.3333 20H19.3333C19.5101 20 19.6797 19.9298 19.8047 19.8047C19.9298 19.6797 20 19.5101 20 19.3333V15.3333C20 15.1565 19.9298 14.987 19.8047 14.8619C19.6797 14.7369 19.5101 14.6667 19.3333 14.6667ZM3.33333 12.6667V16.6667C3.33333 16.8435 3.40357 17.013 3.5286 17.1381C3.65362 17.2631 3.82319 17.3333 4 17.3333C4.17681 17.3333 4.34638 17.2631 4.4714 17.1381C4.59643 17.013 4.66667 16.8435 4.66667 16.6667V12.6667C4.66667 12.4899 4.59643 12.3203 4.4714 12.1953C4.34638 12.0702 4.17681 12 4 12C3.82319 12 3.65362 12.0702 3.5286 12.1953C3.40357 12.3203 3.33333 12.4899 3.33333 12.6667ZM8 12C7.82319 12 7.65362 12.0702 7.5286 12.1953C7.40357 12.3203 7.33333 12.4899 7.33333 12.6667V16.6667C7.33333 16.8435 7.40357 17.013 7.5286 17.1381C7.65362 17.2631 7.82319 17.3333 8 17.3333C8.17681 17.3333 8.34638 17.2631 8.4714 17.1381C8.59643 17.013 8.66667 16.8435 8.66667 16.6667V12.6667C8.66667 12.4899 8.59643 12.3203 8.4714 12.1953C8.34638 12.0702 8.17681 12 8 12ZM12 12C11.8232 12 11.6536 12.0702 11.5286 12.1953C11.4036 12.3203 11.3333 12.4899 11.3333 12.6667V16.6667C11.3333 16.8435 11.4036 17.013 11.5286 17.1381C11.6536 17.2631 11.8232 17.3333 12 17.3333C12.1768 17.3333 12.3464 17.2631 12.4714 17.1381C12.5964 17.013 12.6667 16.8435 12.6667 16.6667V12.6667C12.6667 12.4899 12.5964 12.3203 12.4714 12.1953C12.3464 12.0702 12.1768 12 12 12ZM15.3333 12.6667V16.6667C15.3333 16.8435 15.4036 17.013 15.5286 17.1381C15.6536 17.2631 15.8232 17.3333 16 17.3333C16.1768 17.3333 16.3464 17.2631 16.4714 17.1381C16.5964 17.013 16.6667 16.8435 16.6667 16.6667V12.6667C16.6667 12.4899 16.5964 12.3203 16.4714 12.1953C16.3464 12.0702 16.1768 12 16 12C15.8232 12 15.6536 12.0702 15.5286 12.1953C15.4036 12.3203 15.3333 12.4899 15.3333 12.6667ZM4.66667 9.33333V3.33333C4.66667 3.15652 4.59643 2.98695 4.4714 2.86193C4.34638 2.7369 4.17681 2.66667 4 2.66667C3.82319 2.66667 3.65362 2.7369 3.5286 2.86193C3.40357 2.98695 3.33333 3.15652 3.33333 3.33333V9.33333H1.33333C1.15652 9.33333 0.986953 9.40357 0.861929 9.5286C0.736905 9.65362 0.666667 9.82319 0.666667 10C0.666667 10.1768 0.736905 10.3464 0.861929 10.4714C0.986953 10.5964 1.15652 10.6667 1.33333 10.6667H18.6667C18.8435 10.6667 19.013 10.5964 19.1381 10.4714C19.2631 10.3464 19.3333 10.1768 19.3333 10C19.3333 9.82319 19.2631 9.65362 19.1381 9.5286C19.013 9.40357 18.8435 9.33333 18.6667 9.33333H16.6667V3.33333C16.6667 3.15652 16.5964 2.98695 16.4714 2.86193C16.3464 2.7369 16.1768 2.66667 16 2.66667C15.8232 2.66667 15.6536 2.7369 15.5286 2.86193C15.4036 2.98695 15.3333 3.15652 15.3333 3.33333V9.33333H12.6667V3.33333C12.6667 3.15652 12.5964 2.98695 12.4714 2.86193C12.3464 2.7369 12.1768 2.66667 12 2.66667C11.8232 2.66667 11.6536 2.7369 11.5286 2.86193C11.4036 2.98695 11.3333 3.15652 11.3333 3.33333V9.33333H8.66667V3.33333C8.66667 3.15652 8.59643 2.98695 8.4714 2.86193C8.34638 2.7369 8.17681 2.66667 8 2.66667C7.82319 2.66667 7.65362 2.7369 7.5286 2.86193C7.40357 2.98695 7.33333 3.15652 7.33333 3.33333V9.33333H4.66667Z" fill="#91C866"/>
</svg>
